<svg width="24" height="12" viewBox="0 0 24 12" fill="none" xmlns="http://www.w3.org/2000/svg">
<path d="M12 6.75C12.8125 6.75 13.5781 6.84375 14.2969 7.03125C15.0156 7.1875 15.6562 7.39062 16.2188 7.64062C16.7812 7.89062 17.2188 8.26562 17.5312 8.76562C17.8438 9.26562 18 9.79688 18 10.3594V12H6V10.4062C6 9.8125 6.15625 9.26562 6.46875 8.76562C6.78125 8.26562 7.21875 7.89062 7.78125 7.64062C8.34375 7.39062 8.98438 7.1875 9.70312 7.03125C10.4219 6.84375 11.1875 6.75 12 6.75ZM3.98438 6.98438C4.54688 6.98438 5.01562 6.79688 5.39062 6.42188C5.79688 6.01562 6 5.54688 6 5.01562C6 4.45312 5.79688 3.98438 5.39062 3.60938C5.01562 3.20312 4.54688 3 3.98438 3C3.45312 3 2.98438 3.20312 2.57812 3.60938C2.20312 3.98438 2.01562 4.45312 2.01562 5.01562C2.01562 5.54688 2.20312 6.01562 2.57812 6.42188C2.98438 6.79688 3.45312 6.98438 3.98438 6.98438ZM5.10938 8.10938C4.95312 8.07812 4.78125 8.0625 4.59375 8.0625C4.40625 8.03125 4.20312 8.01562 3.98438 8.01562C3.48438 8.01562 3 8.0625 2.53125 8.15625C2.09375 8.25 1.65625 8.39062 1.21875 8.57812C0.84375 8.73438 0.546875 8.98438 0.328125 9.32812C0.109375 9.67188 0 10.0469 0 10.4531V12H4.5V10.4062C4.5 9.59375 4.70312 8.82812 5.10938 8.10938ZM20.0156 6.98438C20.5469 6.98438 21 6.79688 21.375 6.42188C21.7812 6.01562 21.9844 5.54688 21.9844 5.01562C21.9844 4.45312 21.7812 3.98438 21.375 3.60938C21 3.20312 20.5469 3 20.0156 3C19.4531 3 18.9688 3.20312 18.5625 3.60938C18.1875 3.98438 18 4.45312 18 5.01562C18 5.54688 18.1875 6.01562 18.5625 6.42188C18.9688 6.79688 19.4531 6.98438 20.0156 6.98438ZM24 10.4531C24 10.0469 23.8906 9.67188 23.6719 9.32812C23.4531 8.98438 23.1562 8.73438 22.7812 8.57812C22.3438 8.39062 21.8906 8.25 21.4219 8.15625C20.9844 8.0625 20.5156 8.01562 20.0156 8.01562C19.7969 8.01562 19.5938 8.03125 19.4062 8.0625C19.2188 8.0625 19.0469 8.07812 18.8906 8.10938C19.2969 8.82812 19.5 9.59375 19.5 10.4062V12H24V10.4531ZM12 0C12.5625 0 13.0625 0.140625 13.5 0.421875C13.9688 0.671875 14.3281 1.03125 14.5781 1.5C14.8594 1.9375 15 2.4375 15 3C15 3.5625 14.8594 4.07812 14.5781 4.54688C14.3281 4.98438 13.9688 5.34375 13.5 5.625C13.0625 5.875 12.5625 6 12 6C11.4375 6 10.9219 5.875 10.4531 5.625C10.0156 5.34375 9.65625 4.98438 9.375 4.54688C9.125 4.07812 9 3.5625 9 3C9 2.4375 9.125 1.9375 9.375 1.5C9.65625 1.03125 10.0156 0.671875 10.4531 0.421875C10.9219 0.140625 11.4375 0 12 0Z" fill="#F2F2F2"/>
</svg>
