<svg width="20" height="20" viewBox="0 0 20 20" fill="none" xmlns="http://www.w3.org/2000/svg">
<path d="M18.0156 0.015625H1.98438C1.48438 0.015625 1.03125 0.21875 0.625 0.625C0.21875 1 0.015625 1.45313 0.015625 1.98438V5.03125C0.015625 5.375 0.109375 5.70312 0.296875 6.01562C0.484375 6.29688 0.71875 6.53125 1 6.71875V18.0156C1 18.3594 1.09375 18.6875 1.28125 19C1.5 19.3125 1.76562 19.5625 2.07812 19.75C2.39062 19.9062 2.70312 19.9844 3.01562 19.9844H16.9844C17.2969 19.9844 17.6094 19.9062 17.9219 19.75C18.2344 19.5625 18.4844 19.3125 18.6719 19C18.8906 18.6875 19 18.3594 19 18.0156V6.71875C19.2812 6.53125 19.5156 6.29688 19.7031 6.01562C19.8906 5.70312 19.9844 5.375 19.9844 5.03125V1.98438C19.9844 1.45313 19.7812 1 19.375 0.625C18.9688 0.21875 18.5156 0.015625 18.0156 0.015625ZM13 12.0156H7V10H13V12.0156ZM18.0156 4.98438H1.98438V1.98438H18.0156V4.98438Z" fill="#F2F2F2"/>
</svg>
