<svg width="24" height="18" viewBox="0 0 24 18" fill="none" xmlns="http://www.w3.org/2000/svg">
<path d="M16.9219 15.0938C17.2031 15.375 17.5625 15.5156 18 15.5156C18.4375 15.5156 18.7969 15.375 19.0781 15.0938C19.3594 14.7812 19.5 14.4219 19.5 14.0156C19.5 13.6094 19.3594 13.2656 19.0781 12.9844C18.7969 12.6719 18.4375 12.5156 18 12.5156C17.5625 12.5156 17.2031 12.6719 16.9219 12.9844C16.6406 13.2656 16.5 13.6094 16.5 14.0156C16.5 14.4219 16.6406 14.7812 16.9219 15.0938ZM19.5 6.51562H17.0156V9H21.4688L19.5 6.51562ZM4.92188 15.0938C5.20312 15.375 5.5625 15.5156 6 15.5156C6.4375 15.5156 6.79688 15.375 7.07812 15.0938C7.35938 14.7812 7.5 14.4219 7.5 14.0156C7.5 13.6094 7.35938 13.2656 7.07812 12.9844C6.79688 12.6719 6.4375 12.5156 6 12.5156C5.5625 12.5156 5.20312 12.6719 4.92188 12.9844C4.64062 13.2656 4.5 13.6094 4.5 14.0156C4.5 14.4219 4.64062 14.7812 4.92188 15.0938ZM20.0156 5.01562L23.0156 9V14.0156H21C21 14.8281 20.7031 15.5312 20.1094 16.125C19.5156 16.7188 18.8125 17.0156 18 17.0156C17.1875 17.0156 16.4844 16.7188 15.8906 16.125C15.2969 15.5312 15 14.8281 15 14.0156H9C9 14.8281 8.70312 15.5312 8.10938 16.125C7.51562 16.7188 6.8125 17.0156 6 17.0156C5.1875 17.0156 4.48438 16.7188 3.89062 16.125C3.29688 15.5312 3 14.8281 3 14.0156H0.984375V3C0.984375 2.46875 1.1875 2 1.59375 1.59375C2 1.1875 2.46875 0.984375 3 0.984375H17.0156V5.01562H20.0156Z" fill="#F2F2F2"/>
</svg>
