<svg width="67" height="30" viewBox="0 0 67 30" fill="none" xmlns="http://www.w3.org/2000/svg">
<path d="M6.78977 23.7557C5.44886 23.7557 4.33807 23.483 3.45739 22.9375C2.5767 22.3864 1.95739 21.608 1.59943 20.6023C1.24716 19.5909 1.1875 18.3949 1.42045 17.0142C1.64773 15.6676 2.10511 14.4858 2.79261 13.4688C3.4858 12.4517 4.35511 11.6591 5.40057 11.0909C6.44602 10.5227 7.6108 10.2386 8.89489 10.2386C9.75852 10.2386 10.5398 10.3778 11.2386 10.6562C11.9432 10.929 12.5284 11.3437 12.9943 11.9006C13.4602 12.4517 13.7784 13.142 13.9489 13.9716C14.125 14.8011 14.1222 15.7727 13.9403 16.8864L13.7784 17.8835H2.73295L3.08239 15.6335H10.7188C10.804 15.1108 10.7699 14.6477 10.6165 14.2443C10.4631 13.8409 10.2074 13.5256 9.84943 13.2983C9.49148 13.0653 9.05114 12.9489 8.52841 12.9489C7.99432 12.9489 7.49432 13.0795 7.02841 13.3409C6.5625 13.6023 6.17045 13.946 5.85227 14.3722C5.53977 14.7926 5.33807 15.25 5.24716 15.7443L4.84659 17.9773C4.73295 18.6648 4.75568 19.2358 4.91477 19.6903C5.07955 20.1449 5.36364 20.4858 5.76705 20.7131C6.17045 20.9347 6.68182 21.0455 7.30114 21.0455C7.70455 21.0455 8.08239 20.9886 8.43466 20.875C8.79261 20.7614 9.1108 20.5938 9.3892 20.3722C9.66761 20.1449 9.89489 19.8636 10.071 19.5284L13.3864 19.75C13.0795 20.5568 12.6136 21.2614 11.9886 21.8636C11.3636 22.4602 10.6108 22.9261 9.73011 23.2614C8.85511 23.5909 7.875 23.7557 6.78977 23.7557ZM15.2933 23.5L18.1911 6.04545H25.0774C26.3956 6.04545 27.478 6.2983 28.3246 6.80398C29.1768 7.30398 29.7734 8 30.1143 8.89204C30.4609 9.77841 30.5405 10.8011 30.353 11.9602C30.1598 13.125 29.7393 14.1506 29.0916 15.0369C28.4496 15.9176 27.6143 16.6051 26.5859 17.0994C25.5575 17.5937 24.37 17.8409 23.0234 17.8409H18.6342L19.12 14.8835H22.9126C23.6286 14.8835 24.2393 14.7614 24.745 14.517C25.2564 14.267 25.6626 13.9233 25.9638 13.4858C26.2649 13.0426 26.4609 12.5341 26.5518 11.9602C26.6484 11.375 26.6172 10.8665 26.4581 10.4347C26.299 10.0028 26.0064 9.66761 25.5803 9.42898C25.1598 9.18466 24.5945 9.0625 23.8842 9.0625H21.3956L18.9837 23.5H15.2933ZM37.1051 23.5H30.8324L33.7301 6.04545H39.8835C41.6392 6.04545 43.0966 6.40341 44.2557 7.11932C45.4205 7.83523 46.2415 8.8608 46.7188 10.196C47.196 11.5256 47.2813 13.1136 46.9744 14.9602C46.679 16.7443 46.0909 18.2756 45.2102 19.554C44.3295 20.8267 43.2017 21.804 41.8267 22.4858C40.4517 23.1619 38.8778 23.5 37.1051 23.5ZM35.0511 20.3381H37.3182C38.4148 20.3381 39.375 20.1335 40.1989 19.7244C41.0284 19.3153 41.7074 18.6847 42.2358 17.8324C42.7699 16.9801 43.1477 15.8892 43.3693 14.5597C43.5795 13.2983 43.5653 12.2756 43.3267 11.4915C43.0938 10.7017 42.642 10.125 41.9716 9.76136C41.3011 9.39205 40.4205 9.20739 39.3295 9.20739H36.9006L35.0511 20.3381ZM53.3601 6.04545L55.3885 19.3068H55.5504L61.968 6.04545H66.0589L57.1442 23.5H52.3885L49.2607 6.04545H53.3601Z" fill="#F2F2F2"/>
</svg>
