<svg width="162" height="122" viewBox="0 0 162 122" fill="none" xmlns="http://www.w3.org/2000/svg">
<path d="M29.0795 78.5114C26.3977 78.5114 24.1761 77.9659 22.4148 76.875C20.6534 75.7727 19.4148 74.2159 18.6989 72.2045C17.9943 70.1818 17.875 67.7898 18.3409 65.0284C18.7955 62.3352 19.7102 59.9716 21.0852 57.9375C22.4716 55.9034 24.2102 54.3182 26.3011 53.1818C28.392 52.0455 30.7216 51.4773 33.2898 51.4773C35.017 51.4773 36.5795 51.7557 37.9773 52.3125C39.3864 52.858 40.5568 53.6875 41.4886 54.8011C42.4205 55.9034 43.0568 57.2841 43.3977 58.9432C43.75 60.6023 43.7443 62.5455 43.3807 64.7727L43.0568 66.767H20.9659L21.6648 62.267H36.9375C37.108 61.2216 37.0398 60.2955 36.733 59.4886C36.4261 58.6818 35.9148 58.0511 35.1989 57.5966C34.483 57.1307 33.6023 56.8977 32.5568 56.8977C31.4886 56.8977 30.4886 57.1591 29.5568 57.6818C28.625 58.2045 27.8409 58.892 27.2045 59.7443C26.5795 60.5852 26.1761 61.5 25.9943 62.4886L25.1932 66.9545C24.9659 68.3295 25.0114 69.4716 25.3295 70.3807C25.6591 71.2898 26.2273 71.9716 27.0341 72.4261C27.8409 72.8693 28.8636 73.0909 30.1023 73.0909C30.9091 73.0909 31.6648 72.9773 32.3693 72.75C33.0852 72.5227 33.7216 72.1875 34.2784 71.7443C34.8352 71.2898 35.2898 70.7273 35.642 70.0568L42.2727 70.5C41.6591 72.1136 40.7273 73.5227 39.4773 74.7273C38.2273 75.9205 36.7216 76.8523 34.9602 77.5227C33.2102 78.1818 31.25 78.5114 29.0795 78.5114ZM46.0866 78L51.8821 43.0909H65.6548C68.2912 43.0909 70.456 43.5966 72.1491 44.608C73.8537 45.608 75.0469 47 75.7287 48.7841C76.4219 50.5568 76.581 52.6023 76.206 54.9205C75.8196 57.25 74.9787 59.3011 73.6832 61.0739C72.3991 62.8352 70.7287 64.2102 68.6719 65.1989C66.6151 66.1875 64.2401 66.6818 61.5469 66.6818H52.7685L53.7401 60.767H61.3253C62.7571 60.767 63.9787 60.5227 64.9901 60.0341C66.0128 59.5341 66.8253 58.8466 67.4276 57.9716C68.0298 57.0852 68.4219 56.0682 68.6037 54.9205C68.7969 53.75 68.7344 52.733 68.4162 51.8693C68.098 51.0057 67.5128 50.3352 66.6605 49.858C65.8196 49.3693 64.6889 49.125 63.2685 49.125H58.2912L53.4673 78H46.0866ZM89.7102 78H77.1648L82.9602 43.0909H95.267C98.7784 43.0909 101.693 43.8068 104.011 45.2386C106.341 46.6705 107.983 48.7216 108.938 51.392C109.892 54.0511 110.063 57.2273 109.449 60.9205C108.858 64.4886 107.682 67.5511 105.92 70.108C104.159 72.6534 101.903 74.608 99.1534 75.9716C96.4034 77.3239 93.2557 78 89.7102 78ZM85.6023 71.6761H90.1364C92.3295 71.6761 94.25 71.267 95.8977 70.4489C97.5568 69.6307 98.9148 68.3693 99.9716 66.6648C101.04 64.9602 101.795 62.7784 102.239 60.1193C102.659 57.5966 102.631 55.5511 102.153 53.983C101.688 52.4034 100.784 51.25 99.4432 50.5227C98.1023 49.7841 96.3409 49.4148 94.1591 49.4148H89.3011L85.6023 71.6761ZM122.22 43.0909L126.277 69.6136H126.601L139.436 43.0909H147.618L129.788 78H120.277L114.021 43.0909H122.22Z" fill="#F2F2F2"/>
</svg>
