<svg width="132" height="116" viewBox="0 0 132 116" fill="none" xmlns="http://www.w3.org/2000/svg">
<path d="M13.2436 46.5114C10.5618 46.5114 8.3402 45.9659 6.57884 44.875C4.81747 43.7727 3.57884 42.2159 2.86293 40.2045C2.15838 38.1818 2.03906 35.7898 2.50497 33.0284C2.95952 30.3352 3.87429 27.9716 5.24929 25.9375C6.63565 23.9034 8.37429 22.3182 10.4652 21.1818C12.5561 20.0455 14.8857 19.4773 17.4538 19.4773C19.1811 19.4773 20.7436 19.7557 22.1413 20.3125C23.5504 20.858 24.7209 21.6875 25.6527 22.8011C26.5845 23.9034 27.2209 25.2841 27.5618 26.9432C27.9141 28.6023 27.9084 30.5455 27.5447 32.7727L27.2209 34.767H5.12997L5.82884 30.267H21.1016C21.272 29.2216 21.2038 28.2955 20.897 27.4886C20.5902 26.6818 20.0788 26.0511 19.3629 25.5966C18.647 25.1307 17.7663 24.8977 16.7209 24.8977C15.6527 24.8977 14.6527 25.1591 13.7209 25.6818C12.7891 26.2045 12.005 26.892 11.3686 27.7443C10.7436 28.5852 10.3402 29.5 10.1584 30.4886L9.35724 34.9545C9.12997 36.3295 9.17543 37.4716 9.49361 38.3807C9.82315 39.2898 10.3913 39.9716 11.1982 40.4261C12.005 40.8693 13.0277 41.0909 14.2663 41.0909C15.0732 41.0909 15.8288 40.9773 16.5334 40.75C17.2493 40.5227 17.8857 40.1875 18.4425 39.7443C18.9993 39.2898 19.4538 38.7273 19.8061 38.0568L26.4368 38.5C25.8232 40.1136 24.8913 41.5227 23.6413 42.7273C22.3913 43.9205 20.8857 44.8523 19.1243 45.5227C17.3743 46.1818 15.4141 46.5114 13.2436 46.5114ZM30.2507 46L36.0462 11.0909H49.8189C52.4553 11.0909 54.62 11.5966 56.3132 12.608C58.0178 13.608 59.2109 15 59.8928 16.7841C60.5859 18.5568 60.745 20.6023 60.37 22.9205C59.9837 25.25 59.1428 27.3011 57.8473 29.0739C56.5632 30.8352 54.8928 32.2102 52.8359 33.1989C50.7791 34.1875 48.4041 34.6818 45.7109 34.6818H36.9325L37.9041 28.767H45.4893C46.9212 28.767 48.1428 28.5227 49.1541 28.0341C50.1768 27.5341 50.9893 26.8466 51.5916 25.9716C52.1939 25.0852 52.5859 24.0682 52.7678 22.9205C52.9609 21.75 52.8984 20.733 52.5803 19.8693C52.2621 19.0057 51.6768 18.3352 50.8246 17.858C49.9837 17.3693 48.853 17.125 47.4325 17.125H42.4553L37.6314 46H30.2507ZM73.8743 46H61.3288L67.1243 11.0909H79.4311C82.9425 11.0909 85.8572 11.8068 88.1754 13.2386C90.505 14.6705 92.147 16.7216 93.1016 19.392C94.0561 22.0511 94.2266 25.2273 93.6129 28.9205C93.022 32.4886 91.8459 35.5511 90.0845 38.108C88.3232 40.6534 86.0675 42.608 83.3175 43.9716C80.5675 45.3239 77.4197 46 73.8743 46ZM69.7663 39.6761H74.3004C76.4936 39.6761 78.4141 39.267 80.0618 38.4489C81.7209 37.6307 83.0788 36.3693 84.1357 34.6648C85.2038 32.9602 85.9595 30.7784 86.4027 28.1193C86.8232 25.5966 86.7947 23.5511 86.3175 21.983C85.8516 20.4034 84.9482 19.25 83.6072 18.5227C82.2663 17.7841 80.505 17.4148 78.3232 17.4148H73.4652L69.7663 39.6761ZM106.384 11.0909L110.441 37.6136H110.765L123.6 11.0909H131.782L113.952 46H104.441L98.1854 11.0909H106.384ZM17.0874 97.8636L18.0419 92.0511L36.4339 69.0909H41.4453L40.1158 77.1364H37.1328L25.5419 91.6761L25.5078 91.9489H46.201L45.2294 97.8636H17.0874ZM32.8203 104L34.1499 96.0739L34.7124 93.5341L38.7521 69.0909H45.6726L39.8771 104H32.8203ZM62.6925 104.767C59.7607 104.767 57.3572 104.051 55.4822 102.619C53.6072 101.176 52.3288 99.0966 51.647 96.3807C50.9766 93.6648 50.9595 90.3977 51.5959 86.5795C52.2436 82.7727 53.3516 79.5284 54.9197 76.8466C56.4993 74.1648 58.4538 72.125 60.7834 70.7273C63.1243 69.3182 65.755 68.6136 68.6754 68.6136C71.5845 68.6136 73.9766 69.3182 75.8516 70.7273C77.7266 72.1364 79.0107 74.1761 79.7038 76.8466C80.4084 79.517 80.4425 82.7614 79.8061 86.5795C79.1697 90.4091 78.0618 93.6818 76.4822 96.3977C74.9027 99.1023 72.9425 101.176 70.6016 102.619C68.2607 104.051 65.6243 104.767 62.6925 104.767ZM63.7152 98.6477C65.7266 98.6477 67.4879 97.642 68.9993 95.6307C70.5107 93.6193 71.6016 90.6023 72.272 86.5795C72.7152 83.9432 72.8118 81.7443 72.5618 79.983C72.3232 78.2102 71.7834 76.8807 70.9425 75.9943C70.1016 75.108 69.0163 74.6648 67.6868 74.6648C65.6982 74.6648 63.9368 75.6648 62.4027 77.6648C60.88 79.6534 59.7891 82.625 59.13 86.5795C58.6868 89.2614 58.5902 91.5 58.8402 93.2955C59.0902 95.0795 59.6357 96.4205 60.4766 97.3182C61.3175 98.2045 62.397 98.6477 63.7152 98.6477ZM82.6655 97.8636L83.62 92.0511L102.012 69.0909H107.023L105.694 77.1364H102.711L91.12 91.6761L91.0859 91.9489H111.779L110.808 97.8636H82.6655ZM98.3984 104L99.728 96.0739L100.29 93.5341L104.33 69.0909H111.251L105.455 104H98.3984Z" fill="#F2F2F2"/>
</svg>
